# This file uses centimeters as units for non-parametric coordinates.

mtllib ski.mtl
g default
v -3.353733 -0.201239 -0.218659
v 3.395907 -0.108355 -0.214856
v -3.234373 -0.169985 0.167523
v 3.318578 -0.083702 0.138697
v -3.259706 -0.073237 0.167523
v 3.348954 0.011583 0.138697
v -3.379066 -0.104492 -0.218659
v 3.426284 -0.013070 -0.214856
v -0.704484 -0.050005 -0.217165
v -0.661454 -0.050005 0.156199
v -0.661454 0.050005 0.156199
v -0.704484 0.050005 -0.217165
v 1.160654 -0.050005 -0.216118
v 1.147371 -0.050005 0.148263
v 1.147371 0.050005 0.148263
v 1.160654 0.050005 -0.216118
v 3.575542 -0.060654 -0.185941
v 3.545165 -0.155938 -0.185941
v 3.573801 -0.060099 0.118727
v 3.543424 -0.155383 0.118727
v -3.495302 -0.134928 -0.193088
v -3.469969 -0.231676 -0.193088
v -3.476835 -0.233474 0.130831
v -3.502168 -0.136726 0.130831
v 3.605491 -0.175170 -0.049846
v 3.357732 -0.096185 -0.040319
v 1.154097 -0.050005 -0.036236
v -0.683242 -0.050005 -0.032848
v -3.294809 -0.185810 -0.028014
v -3.530576 -0.247546 -0.012785
v -3.555910 -0.150798 -0.012785
v -3.320143 -0.089062 -0.028014
v -0.683242 0.050005 -0.032848
v 1.154097 0.050005 -0.036236
v 3.388109 -0.000900 -0.040319
v 3.635868 -0.079886 -0.049846
v -2.710432 -0.050005 0.165188
v -2.710432 0.050005 0.165188
v -2.764519 0.050005 -0.029011
v -2.817252 0.050005 -0.218351
v -2.817252 -0.050005 -0.218351
v -2.764518 -0.050005 -0.029011
v 2.587554 -0.050005 0.141945
v 2.587554 0.050005 0.141945
v 2.616982 0.050005 -0.038933
v 2.645673 0.050005 -0.215284
v 2.645673 -0.050005 -0.215284
v 2.616982 -0.050005 -0.038933
vt 0.375000 0.000000
vt 0.625000 0.000000
vt 0.375000 0.250000
vt 0.625000 0.250000
vt 0.375000 0.500000
vt 0.625000 0.500000
vt 0.375000 0.750000
vt 0.625000 0.750000
vt 0.375000 1.000000
vt 0.625000 1.000000
vt 0.875000 0.000000
vt 0.875000 0.250000
vt 0.125000 0.000000
vt 0.125000 0.250000
vt 0.473209 0.000000
vt 0.473209 1.000000
vt 0.473209 0.250000
vt 0.473209 0.500000
vt 0.473209 0.750000
vt 0.542035 0.000000
vt 0.542035 1.000000
vt 0.542035 0.250000
vt 0.542035 0.500000
vt 0.542035 0.750000
vt 0.625000 0.000000
vt 0.875000 0.000000
vt 0.875000 0.250000
vt 0.625000 0.250000
vt 0.125000 0.000000
vt 0.375000 0.000000
vt 0.375000 0.250000
vt 0.125000 0.250000
vt 0.625000 0.123416
vt 0.625000 0.123416
vt 0.542035 0.123416
vt 0.473209 0.123416
vt 0.375000 0.123416
vt 0.375000 0.123416
vt 0.125000 0.123416
vt 0.125000 0.123416
vt 0.375000 0.626584
vt 0.473209 0.626584
vt 0.542035 0.626584
vt 0.625000 0.626584
vt 0.875000 0.123416
vt 0.875000 0.123416
vt 0.395246 0.250000
vt 0.395246 0.500000
vt 0.395246 0.626584
vt 0.395246 0.750000
vt 0.395246 0.000000
vt 0.395246 1.000000
vt 0.395246 0.123416
vt 0.596834 0.250000
vt 0.596834 0.500000
vt 0.596834 0.626584
vt 0.596834 0.750000
vt 0.596834 0.000000
vt 0.596834 1.000000
vt 0.596834 0.123416
vn 0.257214 -0.966088 -0.022670
vn 0.056248 -0.998384 -0.008039
vn 0.052555 -0.998593 -0.007097
vn 0.252255 -0.967328 -0.025386
vn -0.133910 -0.035089 0.990372
vn 0.004332 0.000186 0.999991
vn 0.004386 0.000006 0.999990
vn 0.002190 0.000019 0.999998
vn -0.248230 0.968392 0.024468
vn -0.053293 0.998554 0.007001
vn -0.056958 0.998345 0.007933
vn -0.253720 0.967028 0.021977
vn -0.001213 -0.000389 -0.999999
vn 0.000561 0.000001 -1.000000
vn 0.000555 0.000024 -1.000000
vn -0.186651 -0.048880 -0.981210
vn 0.863841 -0.275392 -0.421827
vn 0.863841 -0.275392 -0.421827
vn 0.952753 -0.303737 -0.002307
vn 0.952317 -0.303598 0.030338
vn -0.913792 -0.239279 -0.328223
vn -0.913792 -0.239279 -0.328224
vn -0.966906 -0.253187 -0.031463
vn -0.967233 -0.253273 -0.017719
vn 0.000000 -1.000000 0.000000
vn 0.000000 -1.000000 0.000000
vn 0.000000 -1.000000 0.000000
vn 0.000000 -1.000000 0.000000
vn 0.004387 0.000000 0.999990
vn 0.004387 0.000000 0.999990
vn 0.004387 0.000000 0.999990
vn 0.004387 0.000000 0.999990
vn -0.000000 1.000000 0.000000
vn -0.000000 1.000000 0.000000
vn 0.000000 1.000000 0.000000
vn 0.000000 1.000000 0.000000
vn 0.000561 -0.000000 -1.000000
vn 0.000561 -0.000000 -1.000000
vn 0.000561 -0.000000 -1.000000
vn 0.000561 -0.000000 -1.000000
vn -0.023442 -0.999700 0.007132
vn -0.020647 -0.999758 0.007605
vn 0.004355 -0.000323 0.999990
vn 0.004382 -0.000054 0.999990
vn 0.022464 0.999719 -0.007570
vn 0.025216 0.999657 -0.007104
vn 0.000561 -0.000005 -1.000000
vn 0.000557 -0.000042 -1.000000
vn 0.135216 -0.043087 -0.989879
vn 0.001681 -0.000446 -0.999998
vn 0.172930 -0.055130 -0.983390
vn 0.172930 -0.055130 -0.983390
vn 0.143504 0.989544 -0.014500
vn 0.120707 0.992544 -0.016943
vn 0.303739 0.952755 -0.000000
vn 0.303739 0.952755 -0.000001
vn 0.004833 -0.000840 0.999988
vn 0.062798 -0.019857 0.997829
vn 0.080335 -0.025611 0.996439
vn 0.080335 -0.025611 0.996439
vn -0.119644 -0.992666 0.017326
vn -0.143188 -0.989585 0.014774
vn -0.303739 -0.952755 0.000000
vn -0.303739 -0.952755 -0.000000
vn -0.201364 -0.052727 -0.978096
vn -0.201364 -0.052727 -0.978096
vn 0.253311 -0.967385 0.000000
vn 0.253311 -0.967385 0.000000
vn -0.140128 -0.036693 0.989453
vn -0.140128 -0.036693 0.989453
vn -0.253311 0.967385 0.000000
vn -0.253310 0.967385 0.000000
vn -0.089279 -0.995785 0.021003
vn -0.303739 -0.952755 -0.000001
vn -0.017476 -0.999817 0.007854
vn 0.000000 -1.000000 0.000000
vn 0.000000 -1.000000 0.000000
vn 0.050235 -0.998717 -0.006351
vn 0.238223 -0.970878 -0.025396
vn 0.253311 -0.967385 0.000000
vn -0.902237 -0.236254 0.360768
vn -0.902236 -0.236254 0.360768
vn -0.234020 0.971928 0.024318
vn -0.253310 0.967385 0.000000
vn -0.051003 0.998679 0.006260
vn -0.000000 1.000000 0.000000
vn 0.000000 1.000000 0.000000
vn 0.019305 0.999783 -0.007823
vn 0.091504 0.995595 -0.020450
vn 0.303739 0.952755 0.000000
vn 0.888704 -0.283319 0.360467
vn 0.888704 -0.283319 0.360467
s 1
g pCube1
usemtl initialShadingGroup
f 1/1/1 41/51/2 42/53/3 29/37/4
s 2
f 3/3/5 37/47/6 38/48/7 5/5/8
s 3
f 32/41/9 39/49/10 40/50/11 7/7/12
s 4
f 7/7/13 40/50/14 41/52/15 1/9/16
s 5
f 18/25/17 17/26/18 36/46/19 25/33/20
s 6
f 21/29/21 22/30/22 30/38/23 31/39/24
s 1
f 9/15/25 13/20/26 27/35/27 28/36/28
s 2
f 11/18/29 10/17/30 14/22/31 15/23/32
s 3
f 12/19/33 33/42/34 34/43/35 16/24/36
s 4
f 9/16/37 12/19/38 16/24/39 13/21/40
s 1
f 13/20/26 47/58/41 48/60/42 27/35/27
s 2
f 15/23/32 14/22/31 43/54/43 44/55/44
s 3
f 16/24/36 34/43/35 45/56/45 46/57/46
s 4
f 13/21/40 16/24/39 46/57/47 47/59/48
f 2/2/49 8/11/50 17/26/51 18/25/52
s 3
f 8/11/53 35/45/54 36/46/55 17/26/56
s 2
f 6/12/57 4/4/58 20/28/59 19/27/60
s 1
f 26/34/61 2/2/62 18/25/63 25/33/64
s 4
f 7/13/13 1/1/16 22/30/65 21/29/66
s 1
f 1/1/1 29/37/4 30/38/67 22/30/68
s 2
f 3/3/5 5/14/8 24/32/69 23/31/70
s 3
f 32/40/9 7/13/12 21/29/71 31/39/72
s 1
f 4/4/73 26/34/61 25/33/64 20/28/74
f 27/35/27 48/60/42 43/54/75 14/22/76
f 28/36/28 27/35/27 14/22/76 10/17/77
f 29/37/4 42/53/3 37/47/78 3/3/79
f 30/38/67 29/37/4 3/3/79 23/31/80
s 6
f 31/39/24 30/38/23 23/31/81 24/32/82
s 3
f 5/14/83 32/40/9 31/39/72 24/32/84
f 5/5/83 38/48/85 39/49/10 32/41/9
f 34/43/35 33/42/34 11/18/86 15/23/87
f 45/56/45 34/43/35 15/23/87 44/55/88
f 36/46/55 35/45/54 6/12/89 19/27/90
s 5
f 25/33/20 36/46/19 19/27/91 20/28/92
s 2
f 37/47/6 10/17/30 11/18/29 38/48/7
s 3
f 39/49/10 38/48/85 11/18/86 33/42/34
f 40/50/11 39/49/10 33/42/34 12/19/33
s 4
f 41/52/15 40/50/14 12/19/38 9/16/37
s 1
f 42/53/3 41/51/2 9/15/25 28/36/28
f 37/47/78 42/53/3 28/36/28 10/17/77
s 2
f 44/55/44 43/54/43 4/4/58 6/6/57
s 3
f 35/44/54 45/56/45 44/55/88 6/6/89
f 46/57/46 45/56/45 35/44/54 8/8/53
s 4
f 47/59/48 46/57/47 8/8/50 2/10/49
s 1
f 48/60/42 47/58/41 2/2/62 26/34/61
f 43/54/75 48/60/42 26/34/61 4/4/73
